<svg width="104" height="104" viewBox="0 0 104 104" fill="none" xmlns="http://www.w3.org/2000/svg">
  <style>
    :root {
      color: #000000;
      --x-nt-favicon-shadow-opacity: 0.2;
      --x-nt-favicon-main-opacity: 0.5;
    }

    @media (prefers-color-scheme: dark) {
      :root {
        color: #f1f3f4;
        --x-nt-favicon-shadow-opacity: 0.34;
        --x-nt-favicon-main-opacity: 0.72;
      }
    }
  </style>
  <path opacity="var(--x-nt-favicon-shadow-opacity, 0.2)" d="M14.1832 28.5107C14.7736 26.0503 17.4872 24.8712 19.8045 25.8872L29.0688 29.9483C23.1024 42.5571 20.9583 59.1892 34.0764 74.4517C35.5367 76.1508 37.0158 77.6786 38.5039 79.0511C15.0742 61.6944 10.3754 44.3784 14.1832 28.5107ZM50.1563 62.6667C55.3534 57.1072 64.2555 57.3891 69.0898 63.2669L69.4706 63.7295C65.5069 61.937 61.0203 61.3468 56.5866 62.1747L49.3526 63.5259L50.1563 62.6667Z" fill="currentColor"/>
  <path d="M34.0761 74.4516C15.8955 53.2991 27.0297 29.5157 37.0262 17.4579C38.6314 15.5217 41.5522 15.6368 43.1924 17.5435L54.2217 30.3654C58.8053 35.6938 59.7099 43.2656 56.5107 49.524L49.3531 63.5257L56.8412 62.1274C64.6007 60.6784 72.5332 63.5719 77.5374 69.6765L83.762 77.2699C85.0646 78.859 85.0813 81.1684 83.4746 82.4491C74.4334 89.6554 52.1633 95.4955 34.0761 74.4516Z" fill="currentColor" fill-opacity="var(--x-nt-favicon-main-opacity, 0.5)"/>
</svg>
