<svg width="24" height="62" viewBox="0 0 24 62" fill="none" xmlns="http://www.w3.org/2000/svg">
<path d="M13.6451 20.052C13.6529 20.0715 10.8074 18.9826 8.8638 20.3347C6.92413 21.6942 6.41373 23.6746 7.05075 24.8589C7.69254 26.0761 9.09363 26.0254 10.7762 24.6212C12.4062 23.2149 13.5909 20.0541 13.6451 20.052ZM12.77 18.2055C14.7088 17.1618 16.7235 14.2577 16.7842 14.2637C16.7899 14.2793 14.2435 12.6103 11.9609 13.5508C9.68815 14.4992 8.69382 16.3534 9.03552 17.6561C9.3794 18.9921 10.771 19.2415 12.77 18.2055ZM6.7472 32.2533C7.62749 33.301 8.98219 32.9584 10.31 31.2369C11.5897 29.5266 12.0094 26.2257 12.0558 26.2157C12.0697 26.2335 9.07022 25.77 7.49653 27.4737C5.93543 29.1953 5.87385 31.2252 6.7472 32.2533ZM7.73764 34.7112C6.58676 36.7172 6.93627 38.731 7.99002 39.5545C9.06414 40.4019 10.3083 39.7826 11.2501 37.8135C12.1452 35.8582 11.8538 32.5434 11.8958 32.5239C11.9114 32.5417 8.90587 32.7108 7.73764 34.7112ZM0.00452422 33.1085C-0.0626901 33.0928 0.61032 37.9171 2.60724 39.7262C4.53043 41.5415 5.93066 41.218 6.38078 39.9621C6.8413 38.6729 6.29014 36.9024 4.61933 35.0425C2.95328 33.1765 0.0136307 33.0889 0.00452422 33.1085ZM1.61723 41.8121C1.55305 41.8121 3.16837 46.4221 5.45886 47.7989C7.67736 49.1857 8.97135 48.5738 9.16301 47.2382C9.36162 45.8731 8.4822 44.2331 6.48312 42.7548C4.49574 41.2609 1.62417 41.7908 1.61723 41.8121ZM16.4157 12.2365C18.6216 11.5977 21.5127 9.07175 21.5816 9.08346C21.5825 9.10514 19.5084 6.91006 16.9308 7.39313C14.3619 7.89182 12.8585 9.54139 12.8446 10.9204C12.829 12.3245 14.1382 12.8635 16.4157 12.2365ZM4.3496 27.1411C3.11286 24.9677 0.246929 24.2609 0.230451 24.2782C0.160201 24.2509 -0.204057 29.1064 1.40302 31.2876C2.9329 33.4549 4.37779 33.4337 5.07508 32.3041C5.78972 31.1549 5.60976 29.3106 4.3496 27.1411ZM21.0374 4.93135C23.1419 3.24449 23.9341 0.00779698 23.9341 0.00779698C23.9341 0.00779698 20.4511 -0.194713 18.2066 1.4644C15.3641 3.56582 15.4343 5.13733 16.2123 5.90488C17.0479 6.69584 18.6099 6.87493 21.0374 4.93135ZM21.2651 54.81C20.8843 52.6288 18.8063 50.0131 18.8237 49.9779C18.8462 49.984 16.5527 51.912 16.7418 54.2862C16.9434 56.6582 18.3484 58.146 19.6523 58.2106C20.9806 58.2848 21.6224 57.0246 21.2651 54.81ZM9.70376 57.5346C9.64522 57.558 12.8667 61.2136 15.4695 61.5561C18.0141 61.9377 18.9468 60.8298 18.599 59.5133C18.2408 58.1521 16.8159 56.9873 14.4478 56.4205C12.0875 55.8382 9.70376 57.5129 9.70376 57.5346ZM4.90596 50.0638C4.84179 50.0772 7.30617 54.294 9.79917 55.1782C12.2237 56.0858 13.3594 55.2094 13.2835 53.8482C13.2076 52.4536 12.0341 51.0204 9.81001 49.9784C7.59107 48.9207 4.90727 50.0404 4.90596 50.0638ZM10.6491 46.498C11.8538 47.1133 12.9405 46.2391 13.4704 44.0965C13.9591 41.9738 13.0146 38.7701 13.0467 38.7445C13.061 38.7562 10.1847 39.5545 9.45052 41.7674C8.72894 43.9915 9.46396 45.9061 10.6491 46.498ZM16.8454 49.8435C16.9078 47.645 15.3701 44.6728 15.3975 44.6377C15.417 44.6494 12.7752 46.0396 12.4938 48.3808C12.228 50.7316 13.3156 52.4688 14.5805 52.8092C15.8697 53.1639 16.7539 52.0716 16.8454 49.8435ZM14.6551 5.21539C15.3259 2.63523 13.5957 0.299637 13.5614 0.305708C13.4873 0.249335 9.45486 4.11698 9.2389 6.88837C8.93882 9.6073 10.13 10.4603 11.4656 9.95378C12.8446 9.42994 14.0076 7.79425 14.6551 5.21539ZM5.84263 19.3451C5.12582 16.9397 2.47324 15.6371 2.45676 15.6488C2.38391 15.6137 0.890885 20.3152 2.00187 22.7921C3.03003 25.2366 4.46148 25.5228 5.39338 24.5627C6.34782 23.5809 6.57808 21.7406 5.84263 19.3451ZM9.22936 11.9346C9.14784 9.39482 6.86992 7.53883 6.84347 7.54664C6.77365 7.49981 4.05646 11.8778 4.56209 14.5482C4.98185 17.1852 6.32961 17.7658 7.47355 17.0139C8.64915 16.2524 9.32953 14.4723 9.22936 11.9346Z" fill="black"/>
</svg>
